<svg t="1787670699904" class="icon" viewBox="0 0 1024 1024" version="1.1" xmlns="http://www.w3.org/2000/svg" p-id="15950" width="200" height="200" fill="#a6a6aa"><g transform="translate(158.57,161.84) scale(0.6896)"><path d="M1001.9 452.9L573.2 25.5c-34.1-34-87.3-34-117.6 0L23.1 452.9c-22.8 22.7-30.3 60.5-15.2 87 15.2 30.3 41.7 52.9 75.9 52.9h41.7v321.5c0 60.5 49.3 109.7 110 109.7h550.1c60.7 0 110-49.2 110-109.7V592.8h41.7c34.1 0 60.7-18.9 75.9-52.9 19-26.5 11.4-60.5-11.3-87z m-368 514.4h-239V721.4h239v245.9z m333.8-442.5c-3.8 3.8-7.6 18.9-26.6 18.9h-68.3c-15.2 0-26.6 11.3-26.6 26.5v344.2c0 30.3-22.8 56.7-56.9 56.7H687V698.7c0-15.1-11.4-26.5-26.6-26.5H368.3c-15.2 0-26.6 11.3-26.6 26.5V971H235.5c-30.3 0-56.9-22.7-56.9-56.7v-348c0-15.1-11.4-26.5-26.6-26.5H83.8c-19 0-22.8-15.1-26.6-18.9-3.8-3.8-3.8-18.9 3.8-34L493.5 63.4c11.4-11.3 30.4-11.3 41.7 0l428.7 427.4c11.4 15.1 7.6 26.4 3.8 34z" p-id="15951"></path></g></svg>